<?xml version="1.0" encoding="utf-8"?>
<!-- Generator: Adobe Illustrator 24.0.1, SVG Export Plug-In . SVG Version: 6.00 Build 0)  -->
<svg version="1.1" id="Layer_1" xmlns="http://www.w3.org/2000/svg" xmlns:xlink="http://www.w3.org/1999/xlink" x="0px" y="0px"
	 viewBox="0 0 201.1 201.1" style="enable-background:new 0 0 201.1 201.1;" xml:space="preserve">
<style type="text/css">
	.st0{fill:none;stroke:#FFFFFF;stroke-width:6;stroke-miterlimit:10;}
	.st1{fill:none;stroke:#FFFFFF;stroke-width:2;stroke-miterlimit:10;}
</style>
<rect x="69.8" y="73.3" class="st0" width="62.9" height="8.3"/>
<path class="st0" d="M132.8,81.6h-63c-4,15.4-8,30.8-12.1,46.2c28.5,0,57.1,0,85.8,0C139.8,112.5,136.3,97,132.8,81.6z"/>
<polygon class="st1" points="108.8,126.4 115.3,99.3 114,99.1 107.5,126.4 "/>
<polygon class="st1" points="93,126.4 99.5,99.3 98.1,99.1 91.7,126.4 "/>
<polygon class="st1" points="85.1,126.4 91.5,99.3 90.2,99.1 83.7,126.4 "/>
<polygon class="st1" points="77.1,126.4 83.6,99.3 82.3,99.1 75.8,126.4 "/>
<polygon class="st1" points="69.2,126.4 75.7,99.3 74.4,99.1 67.9,126.4 "/>
<polygon class="st1" points="100.9,126.4 107.4,99.3 106.1,99.1 99.6,126.4 "/>
</svg>
