<?xml version="1.0" encoding="utf-8"?>
<!-- Generator: Adobe Illustrator 23.0.6, SVG Export Plug-In . SVG Version: 6.00 Build 0)  -->
<svg version="1.1" id="Layer_1" xmlns="http://www.w3.org/2000/svg" xmlns:xlink="http://www.w3.org/1999/xlink" x="0px" y="0px"
	 viewBox="0 0 201.1 201.1" style="enable-background:new 0 0 201.1 201.1;" xml:space="preserve">
<style type="text/css">
	.st0{fill:none;stroke:#FFFFFF;stroke-width:6;stroke-miterlimit:10;}
</style>
<path class="st0" d="M104,124.4l62.4-68.1l14.7-22.8l-20.9,15.8l-62.4,68.1c-2.8-1.1-5.8-0.7-7.8,1.5l-28.6,31.2
	c-3,3.3-2.4,8.9,1,12.6c3.4,3.7,8.5,4.3,11.5,1.1l28.6-31.2C104.6,130.7,105,127.4,104,124.4z M74.4,156.7c-1.4,1.5-4,1.3-5.8-0.7
	s-2-4.8-0.6-6.3l24.2-26.5c1.4-1.5,4-1.3,5.8,0.7s2,4.8,0.6,6.3L74.4,156.7z"/>
<path class="st0" d="M73.8,151.1c-11.1,11-16.1,12.9-27.6,12.1s-19.1-21.5-5.3-24.3s31.2,30.7,13.6,46s-44.4-10-44.4-10"/>
<path class="st0" d="M8.6,20"/>
</svg>
