<?xml version="1.0" encoding="utf-8"?>
<!-- Generator: Adobe Illustrator 23.0.6, SVG Export Plug-In . SVG Version: 6.00 Build 0)  -->
<svg version="1.1" id="Layer_1" xmlns="http://www.w3.org/2000/svg" xmlns:xlink="http://www.w3.org/1999/xlink" x="0px" y="0px"
	 viewBox="0 0 201.1 201.1" style="enable-background:new 0 0 201.1 201.1;" xml:space="preserve">
<style type="text/css">
	.st0{fill:none;stroke:#FFFFFF;stroke-width:6;stroke-miterlimit:10;}
	.st1{fill:none;stroke:#000000;stroke-width:6;stroke-miterlimit:10;}
</style>
<rect x="1.9" y="110.2" transform="matrix(0.7071 -0.7071 0.7071 0.7071 -67.6619 81.8073)" class="st0" width="126" height="24.8"/>
<path class="st0" d="M56.2,24.8l85.5,85.5c3.5-1.5,5.7-1.8,6.5-0.9c1.4,1.6-1.5,6.8-8.6,15.6c4.6,4.6,9.3,9.3,13.9,13.9
	c12-11.7,24-23.5,36-35.2c-4.8-4.7-9.6-9.4-14.3-14.1c-8.3,7.2-13.3,10.2-14.9,8.9c-0.9-0.7-0.8-2.6,0.3-5.8
	c-21-20.5-42-41-63.1-61.5c-8.4,3.9-14.5,3.2-17.3,2.6c-7.3-1.5-14.7-6.7-21.2-11.4c-0.1,0-0.1-0.1-0.2-0.1
	C58,23.2,57.1,24,56.2,24.8z"/>
<path class="st1" d="M132.8,140.9"/>
<path class="st1" d="M61.9,8.1"/>
</svg>
