<?xml version="1.0" encoding="utf-8"?>
<!-- Generator: Adobe Illustrator 23.0.6, SVG Export Plug-In . SVG Version: 6.00 Build 0)  -->
<svg version="1.1" id="Layer_1" xmlns="http://www.w3.org/2000/svg" xmlns:xlink="http://www.w3.org/1999/xlink" x="0px" y="0px"
	 viewBox="0 0 201.1 201.1" style="enable-background:new 0 0 201.1 201.1;" xml:space="preserve">
<style type="text/css">
	.st0{enable-background:new    ;}
	.st1{fill:#FFFFFF;}
</style>
<g class="st0">
	<path class="st1" d="M37.1,55.2v3.6c0,2.1-0.6,4.2-1.9,6.2s-3,2.9-5.3,2.9c-1.3,0-2.5-0.3-3.4-0.9s-1.8-1.7-2.6-3.2
		c-0.8-1.6-1.2-3.2-1.2-5v-3.6c0-2.1,0.6-4.2,1.8-6.1c1.2-2,3-2.9,5.3-2.9c1.3,0,2.4,0.3,3.4,0.9c0.9,0.6,1.8,1.7,2.6,3.2
		C36.6,51.8,37.1,53.4,37.1,55.2z M33.8,55.2c0-1.8-0.5-3.4-1.5-4.7c-0.6-0.7-1.4-1.1-2.4-1.1s-1.8,0.4-2.4,1.2
		c-1,1.2-1.4,2.8-1.4,4.6v3.6c0,1.8,0.5,3.4,1.5,4.7c0.6,0.7,1.4,1.1,2.4,1.1s1.8-0.4,2.4-1.2c1-1.2,1.4-2.8,1.4-4.6
		C33.8,58.8,33.8,55.2,33.8,55.2z"/>
	<path class="st1" d="M56.8,55.2v3.6c0,2.1-0.6,4.2-1.9,6.2s-3,2.9-5.3,2.9c-1.3,0-2.5-0.3-3.4-0.9s-1.8-1.7-2.6-3.2
		c-0.8-1.6-1.2-3.2-1.2-5v-3.6c0-2.1,0.6-4.2,1.8-6.1c1.2-2,3-2.9,5.3-2.9c1.3,0,2.4,0.3,3.4,0.9c0.9,0.6,1.8,1.7,2.6,3.2
		C56.4,51.8,56.8,53.4,56.8,55.2z M53.5,55.2c0-1.8-0.5-3.4-1.5-4.7c-0.6-0.7-1.4-1.1-2.4-1.1s-1.8,0.4-2.4,1.2
		c-1,1.2-1.4,2.8-1.4,4.6v3.6c0,1.8,0.5,3.4,1.5,4.7c0.6,0.7,1.4,1.1,2.4,1.1s1.8-0.4,2.4-1.2c1-1.2,1.4-2.8,1.4-4.6V55.2z"/>
	<path class="st1" d="M71.1,46.1v18h3.3c0.8,0,1.4,0.2,1.7,0.5c0.3,0.3,0.5,0.7,0.5,1.2s-0.2,0.9-0.5,1.2c-0.3,0.3-0.9,0.5-1.7,0.5
		h-9.9c-0.8,0-1.4-0.2-1.7-0.5s-0.5-0.7-0.5-1.2s0.2-0.9,0.5-1.2c0.3-0.3,0.9-0.5,1.7-0.5h3.3V50.4l-2.9,0.8
		c-0.5,0.1-0.8,0.2-1.1,0.2c-0.4,0-0.8-0.2-1.1-0.5s-0.5-0.7-0.5-1.2c0-0.4,0.1-0.8,0.3-1c0.2-0.3,0.7-0.5,1.4-0.7L71.1,46.1z"/>
	<path class="st1" d="M96.3,55.2v3.6c0,2.1-0.6,4.2-1.9,6.2s-3,2.9-5.3,2.9c-1.3,0-2.5-0.3-3.4-0.9s-1.8-1.7-2.6-3.2
		c-0.8-1.6-1.2-3.2-1.2-5v-3.6c0-2.1,0.6-4.2,1.8-6.1c1.2-2,3-2.9,5.3-2.9c1.3,0,2.4,0.3,3.4,0.9c0.9,0.6,1.8,1.7,2.6,3.2
		C95.9,51.8,96.3,53.4,96.3,55.2z M93,55.2c0-1.8-0.5-3.4-1.5-4.7c-0.6-0.7-1.4-1.1-2.4-1.1s-1.8,0.4-2.4,1.2
		c-1,1.2-1.4,2.8-1.4,4.6v3.6c0,1.8,0.5,3.4,1.5,4.7c0.6,0.7,1.4,1.1,2.4,1.1s1.8-0.4,2.4-1.2c1-1.2,1.4-2.8,1.4-4.6V55.2z"/>
	<path class="st1" d="M110.6,46.1v18h3.3c0.8,0,1.4,0.2,1.7,0.5c0.3,0.3,0.5,0.7,0.5,1.2s-0.2,0.9-0.5,1.2c-0.3,0.3-0.9,0.5-1.7,0.5
		h-10c-0.8,0-1.4-0.2-1.7-0.5s-0.5-0.7-0.5-1.2s0.2-0.9,0.5-1.2s0.9-0.5,1.7-0.5h3.3V50.4l-2.9,0.8c-0.5,0.1-0.8,0.2-1.1,0.2
		c-0.4,0-0.8-0.2-1.1-0.5s-0.5-0.7-0.5-1.2c0-0.4,0.1-0.8,0.3-1c0.2-0.3,0.7-0.5,1.4-0.7L110.6,46.1z"/>
	<path class="st1" d="M130.3,46.1v18h3.3c0.8,0,1.4,0.2,1.7,0.5s0.5,0.7,0.5,1.2s-0.2,0.9-0.5,1.2c-0.3,0.3-0.9,0.5-1.7,0.5h-10
		c-0.8,0-1.4-0.2-1.7-0.5s-0.5-0.7-0.5-1.2s0.2-0.9,0.5-1.2s0.9-0.5,1.7-0.5h3.3V50.4l-2.9,0.8c-0.5,0.1-0.8,0.2-1.1,0.2
		c-0.4,0-0.8-0.2-1.1-0.5s-0.5-0.7-0.5-1.2c0-0.4,0.1-0.8,0.3-1c0.2-0.3,0.7-0.5,1.4-0.7L130.3,46.1z"/>
	<path class="st1" d="M150.1,46.1v18h3.3c0.8,0,1.4,0.2,1.7,0.5s0.5,0.7,0.5,1.2s-0.2,0.9-0.5,1.2c-0.3,0.3-0.9,0.5-1.7,0.5h-10
		c-0.8,0-1.4-0.2-1.7-0.5s-0.5-0.7-0.5-1.2s0.2-0.9,0.5-1.2s0.9-0.5,1.7-0.5h3.3V50.4l-2.9,0.8c-0.5,0.1-0.8,0.2-1.1,0.2
		c-0.4,0-0.8-0.2-1.1-0.5s-0.5-0.7-0.5-1.2c0-0.4,0.1-0.8,0.3-1c0.2-0.3,0.7-0.5,1.4-0.7L150.1,46.1z"/>
	<path class="st1" d="M169.8,46.1v18h3.3c0.8,0,1.4,0.2,1.7,0.5s0.5,0.7,0.5,1.2s-0.2,0.9-0.5,1.2c-0.3,0.3-0.9,0.5-1.7,0.5h-10
		c-0.8,0-1.4-0.2-1.7-0.5s-0.5-0.7-0.5-1.2s0.2-0.9,0.5-1.2s0.9-0.5,1.7-0.5h3.3V50.4l-2.9,0.8c-0.5,0.1-0.8,0.2-1.1,0.2
		c-0.4,0-0.8-0.2-1.1-0.5s-0.5-0.7-0.5-1.2c0-0.4,0.1-0.8,0.3-1c0.2-0.3,0.7-0.5,1.4-0.7L169.8,46.1z"/>
</g>
<g class="st0">
	<path class="st1" d="M37.1,94.7v3.6c0,2.1-0.6,4.2-1.9,6.2s-3,2.9-5.3,2.9c-1.3,0-2.5-0.3-3.4-0.9s-1.8-1.7-2.6-3.2
		c-0.8-1.6-1.2-3.2-1.2-5v-3.6c0-2.1,0.6-4.2,1.8-6.1c1.2-2,3-2.9,5.3-2.9c1.3,0,2.4,0.3,3.4,0.9c0.9,0.6,1.8,1.7,2.6,3.2
		C36.6,91.3,37.1,92.9,37.1,94.7z M33.8,94.7c0-1.8-0.5-3.4-1.5-4.7c-0.6-0.7-1.4-1.1-2.4-1.1s-1.8,0.4-2.4,1.2
		c-1,1.2-1.4,2.8-1.4,4.6v3.6c0,1.8,0.5,3.4,1.5,4.7c0.6,0.7,1.4,1.1,2.4,1.1s1.8-0.4,2.4-1.2c1-1.2,1.4-2.8,1.4-4.6
		C33.8,98.3,33.8,94.7,33.8,94.7z"/>
	<path class="st1" d="M51.3,85.6v18h3.3c0.8,0,1.4,0.2,1.7,0.5s0.5,0.7,0.5,1.2s-0.2,0.9-0.5,1.2c-0.3,0.3-0.9,0.5-1.7,0.5h-9.9
		c-0.8,0-1.4-0.2-1.7-0.5s-0.5-0.7-0.5-1.2s0.2-0.9,0.5-1.2c0.3-0.3,0.9-0.5,1.7-0.5H48V89.9l-2.9,0.8c-0.5,0.1-0.8,0.2-1.1,0.2
		c-0.4,0-0.8-0.2-1.1-0.5s-0.5-0.7-0.5-1.2c0-0.4,0.1-0.8,0.3-1c0.2-0.3,0.7-0.5,1.4-0.7L51.3,85.6z"/>
	<path class="st1" d="M71.1,85.6v18h3.3c0.8,0,1.4,0.2,1.7,0.5c0.3,0.3,0.5,0.7,0.5,1.2s-0.2,0.9-0.5,1.2c-0.3,0.3-0.9,0.5-1.7,0.5
		h-9.9c-0.8,0-1.4-0.2-1.7-0.5s-0.5-0.7-0.5-1.2s0.2-0.9,0.5-1.2c0.3-0.3,0.9-0.5,1.7-0.5h3.3V89.9l-2.9,0.8
		c-0.5,0.1-0.8,0.2-1.1,0.2c-0.4,0-0.8-0.2-1.1-0.5s-0.5-0.7-0.5-1.2c0-0.4,0.1-0.8,0.3-1c0.2-0.3,0.7-0.5,1.4-0.7L71.1,85.6z"/>
	<path class="st1" d="M90.8,85.6v18h3.3c0.8,0,1.4,0.2,1.7,0.5c0.3,0.3,0.5,0.7,0.5,1.2s-0.2,0.9-0.5,1.2c-0.3,0.3-0.9,0.5-1.7,0.5
		h-9.9c-0.8,0-1.4-0.2-1.7-0.5c-0.3-0.3-0.5-0.7-0.5-1.2s0.2-0.9,0.5-1.2c0.3-0.3,0.9-0.5,1.7-0.5h3.3V89.9l-2.9,0.8
		c-0.5,0.1-0.8,0.2-1.1,0.2c-0.4,0-0.8-0.2-1.1-0.5C82.1,90,82,89.6,82,89.1c0-0.4,0.1-0.8,0.3-1c0.2-0.3,0.7-0.5,1.4-0.7L90.8,85.6
		z"/>
	<path class="st1" d="M116.1,94.7v3.6c0,2.1-0.6,4.2-1.9,6.2c-1.2,2-3,2.9-5.3,2.9c-1.3,0-2.5-0.3-3.4-0.9s-1.8-1.7-2.6-3.2
		c-0.8-1.6-1.2-3.2-1.2-5v-3.6c0-2.1,0.6-4.2,1.8-6.1c1.2-2,3-2.9,5.3-2.9c1.3,0,2.4,0.3,3.4,0.9c0.9,0.6,1.8,1.7,2.6,3.2
		C115.7,91.3,116.1,92.9,116.1,94.7z M112.8,94.7c0-1.8-0.5-3.4-1.5-4.7c-0.6-0.7-1.4-1.1-2.4-1.1s-1.8,0.4-2.4,1.2
		c-1,1.2-1.4,2.8-1.4,4.6v3.6c0,1.8,0.5,3.4,1.5,4.7c0.6,0.7,1.4,1.1,2.4,1.1s1.8-0.4,2.4-1.2c1-1.2,1.4-2.8,1.4-4.6V94.7z"/>
	<path class="st1" d="M130.3,85.6v18h3.3c0.8,0,1.4,0.2,1.7,0.5s0.5,0.7,0.5,1.2s-0.2,0.9-0.5,1.2c-0.3,0.3-0.9,0.5-1.7,0.5h-10
		c-0.8,0-1.4-0.2-1.7-0.5c-0.3-0.3-0.5-0.7-0.5-1.2s0.2-0.9,0.5-1.2c0.3-0.3,0.9-0.5,1.7-0.5h3.3V89.9l-2.9,0.8
		c-0.5,0.1-0.8,0.2-1.1,0.2c-0.4,0-0.8-0.2-1.1-0.5s-0.5-0.7-0.5-1.2c0-0.4,0.1-0.8,0.3-1c0.2-0.3,0.7-0.5,1.4-0.7L130.3,85.6z"/>
	<path class="st1" d="M150.1,85.6v18h3.3c0.8,0,1.4,0.2,1.7,0.5s0.5,0.7,0.5,1.2s-0.2,0.9-0.5,1.2c-0.3,0.3-0.9,0.5-1.7,0.5h-10
		c-0.8,0-1.4-0.2-1.7-0.5s-0.5-0.7-0.5-1.2s0.2-0.9,0.5-1.2c0.3-0.3,0.9-0.5,1.7-0.5h3.3V89.9l-2.9,0.8c-0.5,0.1-0.8,0.2-1.1,0.2
		c-0.4,0-0.8-0.2-1.1-0.5s-0.5-0.7-0.5-1.2c0-0.4,0.1-0.8,0.3-1c0.2-0.3,0.7-0.5,1.4-0.7L150.1,85.6z"/>
	<path class="st1" d="M175.3,94.7v3.6c0,2.1-0.6,4.2-1.9,6.2c-1.2,2-3,2.9-5.3,2.9c-1.3,0-2.5-0.3-3.4-0.9s-1.8-1.7-2.6-3.2
		c-0.8-1.6-1.2-3.2-1.2-5v-3.6c0-2.1,0.6-4.2,1.8-6.1c1.2-2,3-2.9,5.3-2.9c1.3,0,2.4,0.3,3.4,0.9c0.9,0.6,1.8,1.7,2.6,3.2
		C174.9,91.3,175.3,92.9,175.3,94.7z M172,94.7c0-1.8-0.5-3.4-1.5-4.7c-0.6-0.7-1.4-1.1-2.4-1.1s-1.8,0.4-2.4,1.2
		c-1,1.2-1.4,2.8-1.4,4.6v3.6c0,1.8,0.5,3.4,1.5,4.7c0.6,0.7,1.4,1.1,2.4,1.1s1.8-0.4,2.4-1.2c1-1.2,1.4-2.8,1.4-4.6V94.7z"/>
</g>
<g class="st0">
	<path class="st1" d="M31.5,125.1v18h3.3c0.8,0,1.4,0.2,1.7,0.5s0.5,0.7,0.5,1.2s-0.2,0.9-0.5,1.2s-0.9,0.5-1.7,0.5h-9.9
		c-0.8,0-1.4-0.2-1.7-0.5c-0.3-0.3-0.5-0.7-0.5-1.2s0.2-0.9,0.5-1.2s0.9-0.5,1.7-0.5h3.3v-13.7l-2.9,0.8c-0.5,0.1-0.8,0.2-1.1,0.2
		c-0.4,0-0.8-0.2-1.1-0.5c-0.3-0.3-0.5-0.7-0.5-1.2c0-0.4,0.1-0.8,0.3-1c0.2-0.3,0.7-0.5,1.4-0.7L31.5,125.1z"/>
	<path class="st1" d="M51.3,125.1v18h3.3c0.8,0,1.4,0.2,1.7,0.5s0.5,0.7,0.5,1.2s-0.2,0.9-0.5,1.2s-0.9,0.5-1.7,0.5h-9.9
		c-0.8,0-1.4-0.2-1.7-0.5s-0.5-0.7-0.5-1.2s0.2-0.9,0.5-1.2s0.9-0.5,1.7-0.5H48v-13.7l-2.9,0.8c-0.5,0.1-0.8,0.2-1.1,0.2
		c-0.4,0-0.8-0.2-1.1-0.5s-0.5-0.7-0.5-1.2c0-0.4,0.1-0.8,0.3-1c0.2-0.3,0.7-0.5,1.4-0.7L51.3,125.1z"/>
	<path class="st1" d="M71.1,125.1v18h3.3c0.8,0,1.4,0.2,1.7,0.5c0.3,0.3,0.5,0.7,0.5,1.2s-0.2,0.9-0.5,1.2s-0.9,0.5-1.7,0.5h-9.9
		c-0.8,0-1.4-0.2-1.7-0.5s-0.5-0.7-0.5-1.2s0.2-0.9,0.5-1.2s0.9-0.5,1.7-0.5h3.3v-13.7l-2.9,0.8c-0.5,0.1-0.8,0.2-1.1,0.2
		c-0.4,0-0.8-0.2-1.1-0.5s-0.5-0.7-0.5-1.2c0-0.4,0.1-0.8,0.3-1c0.2-0.3,0.7-0.5,1.4-0.7L71.1,125.1z"/>
	<path class="st1" d="M96.3,134.2v3.6c0,2.1-0.6,4.2-1.9,6.2s-3,2.9-5.3,2.9c-1.3,0-2.5-0.3-3.4-0.9c-0.9-0.6-1.8-1.7-2.6-3.2
		c-0.8-1.6-1.2-3.2-1.2-5v-3.6c0-2.1,0.6-4.2,1.8-6.1c1.2-2,3-2.9,5.3-2.9c1.3,0,2.4,0.3,3.4,0.9c0.9,0.6,1.8,1.7,2.6,3.2
		C95.9,130.8,96.3,132.4,96.3,134.2z M93,134.2c0-1.8-0.5-3.4-1.5-4.7c-0.6-0.7-1.4-1.1-2.4-1.1s-1.8,0.4-2.4,1.2
		c-1,1.2-1.4,2.8-1.4,4.6v3.6c0,1.8,0.5,3.4,1.5,4.7c0.6,0.7,1.4,1.1,2.4,1.1s1.8-0.4,2.4-1.2c1-1.2,1.4-2.8,1.4-4.6V134.2z"/>
	<path class="st1" d="M110.6,125.1v18h3.3c0.8,0,1.4,0.2,1.7,0.5c0.3,0.3,0.5,0.7,0.5,1.2s-0.2,0.9-0.5,1.2s-0.9,0.5-1.7,0.5h-10
		c-0.8,0-1.4-0.2-1.7-0.5s-0.5-0.7-0.5-1.2s0.2-0.9,0.5-1.2s0.9-0.5,1.7-0.5h3.3v-13.7l-2.9,0.8c-0.5,0.1-0.8,0.2-1.1,0.2
		c-0.4,0-0.8-0.2-1.1-0.5s-0.5-0.7-0.5-1.2c0-0.4,0.1-0.8,0.3-1c0.2-0.3,0.7-0.5,1.4-0.7L110.6,125.1z"/>
	<path class="st1" d="M130.3,125.1v18h3.3c0.8,0,1.4,0.2,1.7,0.5s0.5,0.7,0.5,1.2s-0.2,0.9-0.5,1.2s-0.9,0.5-1.7,0.5h-10
		c-0.8,0-1.4-0.2-1.7-0.5s-0.5-0.7-0.5-1.2s0.2-0.9,0.5-1.2s0.9-0.5,1.7-0.5h3.3v-13.7l-2.9,0.8c-0.5,0.1-0.8,0.2-1.1,0.2
		c-0.4,0-0.8-0.2-1.1-0.5s-0.5-0.7-0.5-1.2c0-0.4,0.1-0.8,0.3-1c0.2-0.3,0.7-0.5,1.4-0.7L130.3,125.1z"/>
	<path class="st1" d="M155.6,134.2v3.6c0,2.1-0.6,4.2-1.9,6.2c-1.2,2-3,2.9-5.3,2.9c-1.3,0-2.5-0.3-3.4-0.9s-1.8-1.7-2.6-3.2
		c-0.8-1.6-1.2-3.2-1.2-5v-3.6c0-2.1,0.6-4.2,1.8-6.1c1.2-2,3-2.9,5.3-2.9c1.3,0,2.4,0.3,3.4,0.9c0.9,0.6,1.8,1.7,2.6,3.2
		C155.2,130.8,155.6,132.4,155.6,134.2z M152.3,134.2c0-1.8-0.5-3.4-1.5-4.7c-0.6-0.7-1.4-1.1-2.4-1.1s-1.8,0.4-2.4,1.2
		c-1,1.2-1.4,2.8-1.4,4.6v3.6c0,1.8,0.5,3.4,1.5,4.7c0.6,0.7,1.4,1.1,2.4,1.1s1.8-0.4,2.4-1.2c1-1.2,1.4-2.8,1.4-4.6V134.2z"/>
	<path class="st1" d="M169.8,125.1v18h3.3c0.8,0,1.4,0.2,1.7,0.5s0.5,0.7,0.5,1.2s-0.2,0.9-0.5,1.2s-0.9,0.5-1.7,0.5h-10
		c-0.8,0-1.4-0.2-1.7-0.5s-0.5-0.7-0.5-1.2s0.2-0.9,0.5-1.2s0.9-0.5,1.7-0.5h3.3v-13.7l-2.9,0.8c-0.5,0.1-0.8,0.2-1.1,0.2
		c-0.4,0-0.8-0.2-1.1-0.5s-0.5-0.7-0.5-1.2c0-0.4,0.1-0.8,0.3-1c0.2-0.3,0.7-0.5,1.4-0.7L169.8,125.1z"/>
</g>
</svg>
