<?xml version="1.0" encoding="utf-8"?>
<!-- Generator: Adobe Illustrator 23.0.6, SVG Export Plug-In . SVG Version: 6.00 Build 0)  -->
<svg version="1.1" id="Layer_1" xmlns="http://www.w3.org/2000/svg" xmlns:xlink="http://www.w3.org/1999/xlink" x="0px" y="0px"
	 viewBox="0 0 201.1 201.1" style="enable-background:new 0 0 201.1 201.1;" xml:space="preserve">
<style type="text/css">
	.st0{fill:none;stroke:#000000;stroke-width:6;stroke-miterlimit:10;}
</style>
<path class="st0" d="M173.4,158.6c6.5,0,12.3-13.4,14.6-21.7c3.7-13.4,6-31.9,6-52.3c0.1,2.7,0.1,16.1-10.1,27.2
	c-8.8,9.5-20.3,12.1-27.3,12.4c-0.2,0-0.4,0-0.5,0C156.8,128,163.6,158.6,173.4,158.6z"/>
<path class="st0" d="M154.4,124.3H47.2c-21.8,0-39.7-17.9-39.7-39.7l0,0c0-21.8,17.9-39.7,39.7-39.7h107.2
	c21.8,0,39.7,17.9,39.7,39.7l0,0C194,106.4,176.2,124.3,154.4,124.3z"/>
<circle class="st0" cx="76.3" cy="104.9" r="13.5"/>
<path class="st0" d="M93.9,77.9H75.2c-1.1,0-2-0.9-2-2v-1c0-1.1,0.9-2,2-2h18.7c1.1,0,2,0.9,2,2v1C95.9,77,95,77.9,93.9,77.9z"/>
<path class="st0" d="M125.8,77.9h-17.6c-1.4,0-2.5-1.1-2.5-2.5l0,0c0-1.4,1.1-2.5,2.5-2.5h17.6c1.4,0,2.5,1.1,2.5,2.5l0,0
	C128.3,76.8,127.2,77.9,125.8,77.9z"/>
<path class="st0" d="M54,74.9H44V65c0-1.1-0.9-2-2-2h-5.6c-1.1,0-2,0.9-2,2v10h-10c-1.1,0-2,0.9-2,2v5.6c0,1.1,0.9,2,2,2h10v10
	c0,1.1,0.9,2,2,2h5.6c1.1,0,2-0.9,2-2v-10h10c1.1,0,2-0.9,2-2v-5.6C56,75.8,55.1,74.9,54,74.9z"/>
<circle class="st0" cx="125.3" cy="104.9" r="13.5"/>
<circle class="st0" cx="158.3" cy="66.6" r="5.5"/>
<circle class="st0" cx="158.3" cy="92.8" r="5.5"/>
<circle class="st0" cx="171.4" cy="79.8" r="5.5"/>
<circle class="st0" cx="145.6" cy="79.8" r="5.5"/>
<path class="st0" d="M28.1,158.6c-6.5,0-12.3-13.4-14.6-21.7c-3.7-13.4-6-31.9-6-52.3c-0.1,2.7-0.1,16.1,10.1,27.2
	c8.8,9.5,20.3,12.1,27.3,12.4c0.2,0,0.4,0,0.5,0C44.8,128,38,158.6,28.1,158.6z"/>
</svg>
